<?xml version="1.0" encoding="UTF-8" standalone="no"?>
<!DOCTYPE svg PUBLIC "-//W3C//DTD SVG 20010904//EN"
              "http://www.w3.org/TR/2001/REC-SVG-20010904/DTD/svg10.dtd">

<svg xmlns="http://www.w3.org/2000/svg"
     width="8.88889in" height="5.55556in"
     viewBox="0 0 640 400">
  <path id="Path"
        fill="none" stroke="black" stroke-width="1"
        d="M 267.00,102.00
           C 267.00,101.00 191.00,66.00 191.00,66.00
             191.00,66.00 141.00,111.00 140.00,112.00
             139.00,113.00 150.00,169.00 151.00,169.00
             152.00,169.00 290.00,168.00 290.00,168.00
             290.00,168.00 322.00,209.00 322.00,209.00
             322.00,209.00 310.00,250.00 310.00,250.00
             310.00,250.00 132.00,252.00 132.00,253.00
             132.00,254.00 433.00,261.00 432.00,261.00
             431.00,261.00 500.00,223.00 500.00,223.00
             500.00,223.00 432.00,184.00 432.00,184.00
             432.00,184.00 390.00,212.00 390.00,212.00
             390.00,212.00 433.00,263.00 433.00,263.00" />
</svg>
